<svg width="108" height="75" viewBox="0 0 108 75" fill="none" xmlns="http://www.w3.org/2000/svg">
<path d="M69.5 10.5C69.5 14.7091 65.6895 18.5 60.5 18.5C55.3105 18.5 51.5 14.7091 51.5 10.5C51.5 6.29091 55.3105 2.5 60.5 2.5C65.6895 2.5 69.5 6.29091 69.5 10.5Z" fill="#141414" stroke="#9EA3B2" stroke-width="5"/>
<path d="M23.52 24.736L22.704 30.352H10.992V38.32H21.216V43.84H10.992V52.336H23.52V58H3.12V24.736H23.52ZM39.3296 45.28H36.2576V58H28.3856V24.736H39.2816C43.8256 24.736 47.2336 25.568 49.5056 27.232C51.8096 28.896 52.9616 31.44 52.9616 34.864C52.9616 37.008 52.4496 38.8 51.4256 40.24C50.4016 41.648 48.7856 42.848 46.5776 43.84L55.0256 58H46.1456L39.3296 45.28ZM36.2576 39.856H39.5696C41.3296 39.856 42.6416 39.456 43.5056 38.656C44.4016 37.856 44.8496 36.592 44.8496 34.864C44.8496 33.264 44.3696 32.096 43.4096 31.36C42.4816 30.624 41.0416 30.256 39.0896 30.256H36.2576V39.856ZM65.8826 24.736V58H58.0106V24.736H65.8826ZM85.6571 23.92C87.7371 23.92 89.5771 24.224 91.1771 24.832C92.8091 25.44 94.3451 26.352 95.7851 27.568L92.0411 32.032C91.0491 31.264 90.0731 30.688 89.1131 30.304C88.1531 29.92 87.1291 29.728 86.0411 29.728C83.8011 29.728 82.0251 30.672 80.7131 32.56C79.4331 34.448 78.7931 37.36 78.7931 41.296C78.7931 45.168 79.4331 48.048 80.7131 49.936C82.0251 51.792 83.8331 52.72 86.1371 52.72C87.3531 52.72 88.4571 52.496 89.4491 52.048C90.4411 51.568 91.5131 50.896 92.6651 50.032L96.1691 54.544C94.9211 55.792 93.4011 56.816 91.6091 57.616C89.8491 58.416 87.8971 58.816 85.7531 58.816C82.6811 58.816 80.0091 58.144 77.7371 56.8C75.4651 55.456 73.6891 53.472 72.4091 50.848C71.1611 48.192 70.5371 45.008 70.5371 41.296C70.5371 37.68 71.1771 34.56 72.4571 31.936C73.7691 29.312 75.5611 27.328 77.8331 25.984C80.1371 24.608 82.7451 23.92 85.6571 23.92Z" fill="#141414"/>
</svg>
